<svg width="69" height="76" viewBox="0 0 69 76" fill="none" xmlns="http://www.w3.org/2000/svg">
<path d="M56.294 0H11.9411C5.34623 0 0 6.09854 0 13.6215V61.621C0 69.1439 5.34623 75.2424 11.9411 75.2424H56.294C62.8889 75.2424 68.2351 69.1439 68.2351 61.621V13.6215C68.2351 6.09854 62.8889 0 56.294 0Z" fill="#001E36"/>
<path d="M14.2157 55.4199V20.1078C14.2101 20.0586 14.2145 20.0086 14.2285 19.9616C14.2425 19.9147 14.2658 19.872 14.2966 19.8369C14.3274 19.8018 14.3648 19.7753 14.4059 19.7593C14.4471 19.7432 14.491 19.7382 14.5341 19.7446C16.8399 19.6765 19.5607 19.4592 23.109 19.4592C27.2941 19.4592 30.3646 20.4549 32.3207 22.5986C33.271 23.6129 34.0234 24.844 34.5289 26.2119C35.0344 27.5798 35.2818 29.0538 35.2548 30.538C35.2548 34.4493 34.0418 37.3552 31.6156 39.2557C29.1895 41.1563 26.1379 42.1076 22.4607 42.1098L19.9019 42.1617V55.368C19.9091 55.4244 19.9046 55.4819 19.8888 55.536C19.8731 55.5901 19.8465 55.6393 19.8111 55.6796C19.7758 55.7199 19.7327 55.7502 19.6853 55.7682C19.6379 55.7862 19.5875 55.7913 19.538 55.7831H14.5796C14.3379 55.7831 14.2157 55.6631 14.2157 55.4199ZM19.9019 24.5251V37.2968C19.9019 37.2968 21.1984 37.2385 22.7451 37.2385C24.7788 37.2385 26.4241 36.7282 27.6807 35.7077C28.9374 34.6871 29.5667 33.0158 29.5686 30.6937C29.5686 28.6526 29.0151 27.0786 27.9082 25.9716C26.8013 24.8645 25.2015 24.3154 23.109 24.324C22.5944 24.324 22.0854 24.324 21.5851 24.35C21.0847 24.3759 20.6753 24.3759 20.3568 24.3759C20.0384 24.3759 19.8678 24.3629 19.9019 24.5251ZM54.0195 47.3508C54.0195 51.3237 51.745 53.1886 51.745 53.1886V53.1691C51.6085 53.3215 51.4607 53.4642 51.3157 53.6037C49.75 55.0566 47.6338 55.7831 44.967 55.7831C42.3001 55.7831 40.1204 55.2231 38.4278 54.1031C38.3342 54.066 38.2547 53.9931 38.2029 53.8967C38.1511 53.8003 38.1301 53.6865 38.1434 53.5745V48.687C38.1392 48.6318 38.1474 48.5763 38.1674 48.5258C38.1873 48.4752 38.2182 48.4314 38.2572 48.3983C38.288 48.373 38.3261 48.3616 38.3639 48.3663C38.4017 48.3711 38.4366 48.3918 38.4619 48.4243C40.2662 50.0415 42.4904 50.9291 44.785 50.9475C45.8445 50.9475 46.6558 50.7313 47.2187 50.2989C47.4782 50.1223 47.6932 49.8721 47.8427 49.5725C47.9922 49.273 48.0711 48.9344 48.0717 48.5897C48.0778 48.2418 48.0202 47.8963 47.9027 47.5753C47.7852 47.2542 47.6104 46.9645 47.3893 46.7248C46.9344 46.2146 46.0398 45.6622 44.7054 45.0676C42.2774 43.9865 40.5866 42.8211 39.6332 41.5714C38.6242 40.3192 38.0747 38.6732 38.098 36.9725C38.0985 35.9145 38.2978 34.869 38.6822 33.9062C39.0667 32.9434 39.6276 32.0858 40.327 31.391C41.7504 29.9185 43.7823 29.1823 46.4226 29.1823C48.8867 29.1823 50.7821 29.5683 52.1089 30.3402C52.2596 30.4439 52.3363 30.6645 52.3363 31.0212V35.3833C52.3363 35.805 52.1999 35.9087 51.9269 35.7077C50.3453 34.5223 48.497 33.8838 46.6046 33.8688C45.5413 33.8688 44.7622 34.099 44.2619 34.5531C44.0342 34.7374 43.8476 34.9802 43.7172 35.2619C43.5869 35.5436 43.5163 35.8562 43.5113 36.1747C43.5104 36.4863 43.5666 36.7946 43.6763 37.08C43.786 37.3654 43.9467 37.6215 44.1481 37.832C44.5727 38.3055 45.4673 38.8568 46.8321 39.486C49.2127 40.5476 50.9186 41.6633 51.9497 42.833L51.9753 42.8622C53.0358 43.9746 54.0195 45.5054 54.0195 47.3508Z" fill="#31A8FF"/>
</svg>
